<svg width="16" height="18" viewBox="0 0 16 18" fill="none" xmlns="http://www.w3.org/2000/svg">
<mask id="path-1-inside-1_35_755" fill="white">
<path d="M15.6508 16.7632C15.8745 16.8997 16 17.0837 16 17.2755C16 17.4672 15.8745 17.6512 15.6508 17.7877C15.5407 17.8549 15.4096 17.9083 15.2649 17.9448C15.1203 17.9812 14.965 18 14.8082 18C14.6514 18 14.4962 17.9812 14.3515 17.9448C14.2069 17.9083 14.0757 17.8549 13.9657 17.7877L0.349221 9.51225C0.125456 9.37576 0 9.19173 0 9C0 8.80827 0.125456 8.62425 0.349221 8.48775L13.9657 0.21229C14.0757 0.145054 14.2069 0.09166 14.3515 0.0552145C14.4962 0.018769 14.6514 0 14.8082 0C14.965 0 15.1203 0.018769 15.2649 0.0552145C15.4096 0.09166 15.5407 0.145054 15.6508 0.21229C15.8745 0.348781 16 0.532803 16 0.724535C16 0.916268 15.8745 1.10029 15.6508 1.23678L3.2325 9.00052L15.6508 16.7632Z"/>
</mask>
<path d="M15.6508 16.7632C15.8745 16.8997 16 17.0837 16 17.2755C16 17.4672 15.8745 17.6512 15.6508 17.7877C15.5407 17.8549 15.4096 17.9083 15.2649 17.9448C15.1203 17.9812 14.965 18 14.8082 18C14.6514 18 14.4962 17.9812 14.3515 17.9448C14.2069 17.9083 14.0757 17.8549 13.9657 17.7877L0.349221 9.51225C0.125456 9.37576 0 9.19173 0 9C0 8.80827 0.125456 8.62425 0.349221 8.48775L13.9657 0.21229C14.0757 0.145054 14.2069 0.09166 14.3515 0.0552145C14.4962 0.018769 14.6514 0 14.8082 0C14.965 0 15.1203 0.018769 15.2649 0.0552145C15.4096 0.09166 15.5407 0.145054 15.6508 0.21229C15.8745 0.348781 16 0.532803 16 0.724535C16 0.916268 15.8745 1.10029 15.6508 1.23678L3.2325 9.00052L15.6508 16.7632Z" fill="white"/>
<path d="M15.6508 16.7632L14.5907 18.4591L14.5999 18.4649L14.6093 18.4706L15.6508 16.7632ZM15.6508 17.7877L14.6093 16.0803L14.608 16.0811L15.6508 17.7877ZM13.9657 17.7877L15.0085 16.0811L15.0044 16.0786L13.9657 17.7877ZM0.349221 9.51225L-0.692271 11.2197L-0.6895 11.2214L0.349221 9.51225ZM0.349221 8.48775L-0.689501 6.77864L-0.69227 6.78033L0.349221 8.48775ZM13.9657 0.21229L15.0044 1.92141L15.0085 1.9189L13.9657 0.21229ZM14.8082 0V-2V0ZM15.6508 0.21229L14.608 1.9189L14.6093 1.91971L15.6508 0.21229ZM15.6508 1.23678L14.6093 -0.470643L14.5999 -0.46491L14.5906 -0.459073L15.6508 1.23678ZM3.2325 9.00052L2.17228 7.30467L-0.540464 9.00064L2.17238 10.6964L3.2325 9.00052ZM14.6093 18.4706C14.4817 18.3928 14 18.0258 14 17.2755H18C18 16.1417 17.2674 15.4066 16.6923 15.0558L14.6093 18.4706ZM14 17.2755C14 16.5252 14.4817 16.1581 14.6093 16.0803L16.6923 19.4951C17.2674 19.1443 18 18.4092 18 17.2755H14ZM14.608 16.0811C14.6944 16.0283 14.7555 16.0106 14.7763 16.0054L15.7536 19.8842C16.0637 19.806 16.3871 19.6816 16.6936 19.4943L14.608 16.0811ZM14.7763 16.0054C14.789 16.0022 14.7972 16.001 14.8011 16.0005C14.8051 16 14.8072 16 14.8082 16V20C15.1214 20 15.4412 19.9629 15.7536 19.8842L14.7763 16.0054ZM14.8082 16C14.8092 16 14.8114 16 14.8154 16.0005C14.8192 16.001 14.8274 16.0022 14.8402 16.0054L13.8629 19.8842C14.1753 19.9629 14.4951 20 14.8082 20V16ZM14.8402 16.0054C14.861 16.0106 14.9221 16.0283 15.0085 16.0811L12.9229 19.4943C13.2293 19.6816 13.5528 19.806 13.8629 19.8842L14.8402 16.0054ZM15.0044 16.0786L1.38794 7.80314L-0.6895 11.2214L12.927 19.4968L15.0044 16.0786ZM1.39071 7.80482C1.51832 7.88266 2 8.24973 2 9H-2C-2 10.1337 -1.26741 10.8688 -0.69227 11.2197L1.39071 7.80482ZM2 9C2 9.75027 1.51832 10.1173 1.39071 10.1952L-0.69227 6.78033C-1.26741 7.13115 -2 7.86626 -2 9H2ZM1.38794 10.1969L15.0044 1.9214L12.927 -1.49682L-0.6895 6.77864L1.38794 10.1969ZM15.0085 1.9189C14.9221 1.97171 14.861 1.98936 14.8402 1.9946L13.8629 -1.88417C13.5528 -1.80604 13.2293 -1.6816 12.9229 -1.49432L15.0085 1.9189ZM14.8402 1.9946C14.8274 1.99781 14.8192 1.99901 14.8153 1.99948C14.8114 1.99996 14.8092 2 14.8082 2V-2C14.4951 -2 14.1753 -1.96288 13.8629 -1.88417L14.8402 1.9946ZM14.8082 2C14.8072 2 14.8051 1.99996 14.8011 1.99948C14.7972 1.99901 14.789 1.99781 14.7763 1.9946L15.7536 -1.88417C15.4412 -1.96288 15.1214 -2 14.8082 -2V2ZM14.7763 1.9946C14.7555 1.98936 14.6944 1.97171 14.608 1.9189L16.6936 -1.49432C16.3871 -1.6816 16.0637 -1.80604 15.7536 -1.88417L14.7763 1.9946ZM14.6093 1.91971C14.4817 1.84188 14 1.47482 14 0.724535H18C18 -0.409216 17.2674 -1.14432 16.6923 -1.49513L14.6093 1.91971ZM14 0.724535C14 -0.0257511 14.4817 -0.392811 14.6093 -0.470643L16.6923 2.94421C17.2674 2.59339 18 1.85829 18 0.724535H14ZM14.5906 -0.459073L2.17228 7.30467L4.29273 10.6964L16.711 2.93264L14.5906 -0.459073ZM2.17238 10.6964L14.5907 18.4591L16.7109 15.0673L4.29262 7.30461L2.17238 10.6964Z" fill="white" mask="url(#path-1-inside-1_35_755)"/>
</svg>
