<svg width="32" height="33" viewBox="0 0 32 33" fill="none" xmlns="http://www.w3.org/2000/svg">
<path d="M14.4167 8.375H17.5834V11.625H14.4167V8.375ZM14.4167 14.875H17.5834V24.625H14.4167V14.875ZM16 0.25C7.26002 0.25 0.166687 7.53 0.166687 16.5C0.166687 25.47 7.26002 32.75 16 32.75C24.74 32.75 31.8334 25.47 31.8334 16.5C31.8334 7.53 24.74 0.25 16 0.25ZM16 29.5C9.01752 29.5 3.33335 23.6663 3.33335 16.5C3.33335 9.33375 9.01752 3.5 16 3.5C22.9825 3.5 28.6667 9.33375 28.6667 16.5C28.6667 23.6663 22.9825 29.5 16 29.5Z" fill="white"/>
</svg>
