<svg width="18" height="13" viewBox="0 0 18 13" fill="none" xmlns="http://www.w3.org/2000/svg">
<path d="M15.9239 11.125V9.37512H16.4277C17.0192 9.37512 17.5 8.75797 17.5 8.00025V4.49995C17.5 3.7419 17.0191 3.12508 16.4277 3.12508H15.9239V1.37504C15.9239 0.616981 15.4428 0.000161221 14.8516 0.000161221L1.07229 0C0.480812 0 0 0.61682 0 1.37487V11.1251C0 11.8832 0.480941 12.5 1.07229 12.5H14.8513C15.4427 12.4998 15.9238 11.883 15.9238 11.125L15.9239 11.125ZM1.07236 11.2501C1.01879 11.2501 0.974784 11.194 0.974784 11.125L0.97491 1.37475C0.97491 1.3059 1.01867 1.24964 1.07248 1.24964H14.8515C14.9051 1.24964 14.9488 1.30575 14.9488 1.37475V11.125C14.9488 11.1938 14.9051 11.2501 14.8515 11.2501H1.07236ZM1.53559 2.0624V10.4374H4.30224V2.0624H1.53559Z" fill="white"/>
<rect x="1" y="1" width="9" height="11" fill="white"/>
</svg>
