<svg width="20" height="20" viewBox="0 0 40 40" fill="none" xmlns="http://www.w3.org/2000/svg">
<path d="M31.5233 8.47203C32.0834 9.03241 32.6019 9.6252 33.088 10.2504C32.9908 10.1254 32.8935 10.0003 32.7963 9.8753C33.7407 11.1119 34.5277 12.4596 35.1341 13.8906C35.0739 13.7424 35.0091 13.5942 34.949 13.446C35.5693 14.928 35.9906 16.4841 36.2035 18.0727C36.1803 17.9106 36.1572 17.7438 36.1387 17.5817C36.347 19.1842 36.347 20.8051 36.1387 22.4075C36.1618 22.2454 36.185 22.0787 36.2035 21.9166C35.9905 23.5051 35.5693 25.0612 34.949 26.5432C35.0091 26.395 35.074 26.2468 35.1341 26.0986C34.5277 27.5297 33.7453 28.882 32.7963 30.114C32.8935 29.9889 32.9908 29.8639 33.088 29.7388C32.1204 30.9893 30.9955 32.1147 29.7456 33.0826C29.8706 32.9853 29.9956 32.888 30.1206 32.7908C28.8845 33.7356 27.5374 34.5229 26.1069 35.1296C26.2551 35.0694 26.4032 35.0045 26.5514 34.9443C25.07 35.5649 23.5145 35.9864 21.9266 36.1994C22.0887 36.1762 22.2553 36.1531 22.4173 36.1345C20.8156 36.3429 19.1953 36.3429 17.5936 36.1345C17.7556 36.1577 17.9223 36.1808 18.0843 36.1994C16.4964 35.9863 14.9409 35.5649 13.4596 34.9443C13.6077 35.0045 13.7558 35.0694 13.904 35.1296C12.4735 34.5229 11.1217 33.7402 9.89033 32.7908C10.0153 32.888 10.1403 32.9853 10.2653 33.0826C9.01535 32.1146 7.89042 30.9892 6.92295 29.7388C7.02016 29.8639 7.11738 29.9889 7.2146 30.114C6.27023 28.8774 5.48323 27.5297 4.87679 26.0986C4.93697 26.2468 5.00178 26.395 5.06196 26.5432C4.44163 25.0612 4.02033 23.5051 3.80743 21.9166C3.83058 22.0787 3.85373 22.2454 3.87225 22.4075C3.66393 20.8051 3.66393 19.1842 3.87225 17.5817C3.8491 17.7438 3.82595 17.9106 3.80743 18.0727C4.02038 16.4841 4.44166 14.928 5.06196 13.446C5.00178 13.5942 4.93697 13.7424 4.87679 13.8906C5.48324 12.4596 6.26557 11.1072 7.2146 9.8753C7.11738 10.0003 7.02016 10.1254 6.92295 10.2504C7.89051 8.99996 9.01544 7.87457 10.2653 6.90669C10.1403 7.00394 10.0153 7.1012 9.89033 7.19846C11.1264 6.2537 12.4735 5.46637 13.904 4.85968C13.7558 4.91989 13.6077 4.98473 13.4596 5.04493C14.9409 4.42434 16.4964 4.00287 18.0843 3.78988C17.9223 3.81304 17.7556 3.8362 17.5936 3.85472C19.1953 3.64632 20.8156 3.64632 22.4173 3.85472C22.2553 3.83156 22.0887 3.80841 21.9266 3.78988C23.5145 4.00292 25.07 4.42437 26.5514 5.04493C26.4032 4.98472 26.2551 4.91988 26.1069 4.85968C27.5374 5.46638 28.8892 6.24904 30.1206 7.19846C29.9956 7.1012 29.8706 7.00394 29.7456 6.90669C30.3706 7.39297 30.9631 7.91166 31.5233 8.47203C32.2084 9.15746 33.463 9.2084 34.1435 8.47203C34.8194 7.73566 34.8749 6.58251 34.1435 5.85074C31.264 2.98394 27.4911 0.969344 23.4732 0.30244C21.5196 -0.0217467 19.5568 -0.105112 17.5893 0.149607C16.5152 0.288543 15.4552 0.478427 14.4135 0.784093C13.3951 1.08049 12.3998 1.47415 11.4369 1.91872C7.7195 3.64157 4.54838 6.63802 2.55274 10.2087C0.608388 13.6914 -0.303557 17.7994 0.0899005 21.7777C0.293588 23.8479 0.770418 25.8347 1.57595 27.7521C2.39998 29.7064 3.50642 31.4802 4.89054 33.0965C7.54317 36.1995 11.2235 38.4503 15.1858 39.4182C19.0421 40.3583 23.2131 40.1731 26.9354 38.7605C27.9353 38.3808 28.9121 37.9454 29.8426 37.4175C30.8009 36.8756 31.6897 36.2411 32.5508 35.5603C34.185 34.2682 35.583 32.689 36.7311 30.9614C38.9393 27.6362 40.0873 23.5745 39.9948 19.5822C39.9022 15.5761 38.6153 11.5608 36.2358 8.32314C35.5923 7.45248 34.9072 6.61417 34.1433 5.85005C33.4582 5.16462 32.199 5.11368 31.5231 5.85005C30.8426 6.59106 30.7917 7.73957 31.5231 8.47134L31.5233 8.47203Z" fill="#F15C6D"/>
<path d="M31.5231 5.85092C31.2916 6.08249 31.0648 6.30942 30.8333 6.54098L28.9724 8.40272C28.0511 9.32436 27.1299 10.246 26.2087 11.1676C25.0884 12.2883 23.9681 13.4091 22.8478 14.5298C21.6164 15.7618 20.385 16.9937 19.149 18.2302C17.9037 19.476 16.663 20.7172 15.4177 21.963C14.265 23.1162 13.1077 24.274 11.955 25.4272C10.9735 26.409 9.99209 27.3909 9.01531 28.3681C8.31164 29.072 7.61264 29.7713 6.90893 30.4753C6.57562 30.8088 6.23768 31.1422 5.90438 31.4803C5.89049 31.4942 5.8766 31.5081 5.86272 31.522C5.17757 32.2074 5.12665 33.4671 5.86272 34.1433C6.60341 34.8241 7.75145 34.875 8.48292 34.1433C8.71439 33.9117 8.94123 33.6848 9.17269 33.4532C9.79302 32.8326 10.4133 32.212 11.0337 31.5915C11.9549 30.6698 12.8762 29.7482 13.7973 28.8266L17.1582 25.4643C18.3897 24.2324 19.6211 23.0005 20.8571 21.764C22.1024 20.5182 23.343 19.277 24.5883 18.0312C25.741 16.878 26.8984 15.7202 28.0511 14.567C29.0325 13.5852 30.0139 12.6033 30.9907 11.6261C31.6944 10.9222 32.3934 10.2229 33.0971 9.51887C33.4304 9.18541 33.7684 8.85196 34.1017 8.5139C34.1155 8.5 34.1294 8.48611 34.1433 8.47221C34.8285 7.78678 34.8794 6.52706 34.1433 5.85092C33.4026 5.17476 32.2546 5.11919 31.5231 5.85092V5.85092Z" fill="#F15C6D"/>
</svg>
