<svg width="15" height="18" viewBox="0 0 15 18" fill="none" xmlns="http://www.w3.org/2000/svg">
<path d="M9.80764 8.7538L14.5374 5.69345C15.1495 5.29507 15.1495 4.64317 14.5652 4.24475L8.63898 0.31524C8.19378 0.00741443 7.52618 -0.0831435 6.91404 0.0797929C6.32967 0.242739 5.94016 0.604871 5.94016 1.02146V6.23667L2.68493 4.15427C2.07284 3.75589 1.07123 3.75589 0.45909 4.15427C0.153034 4.35347 0.0138866 4.60698 0.0138866 4.87854C0.0138866 5.15011 0.180791 5.40362 0.486843 5.60281L5.32799 8.7537L0.45907 11.9046C-0.153023 12.303 -0.153023 12.9549 0.45907 13.3533C0.765126 13.5525 1.15463 13.6611 1.57187 13.6611C1.9891 13.6611 2.37862 13.5525 2.68466 13.3713L5.93989 11.2707V16.486C5.93989 16.9024 6.32939 17.2828 6.91377 17.4276C7.10862 17.4819 7.30327 17.5 7.49814 17.5C7.9154 17.5 8.33286 17.3914 8.61094 17.1922L14.5371 13.2627C15.1492 12.8643 15.1215 12.2124 14.5094 11.814L9.80764 8.7538ZM9.08431 6.34539V3.55677L11.2267 4.96922L9.08431 6.34539ZM11.1988 12.5384L9.05639 13.9509V11.1623L11.1988 12.5384Z" fill="white"/>
</svg>
