<svg width="40" height="32" viewBox="0 0 40 32" fill="none" xmlns="http://www.w3.org/2000/svg">
<path d="M35.2 32C36.9673 32 38.4 30.5673 38.4 28.8C38.4 27.0327 36.9673 25.6 35.2 25.6C33.4327 25.6 32 27.0327 32 28.8C32 30.5673 33.4327 32 35.2 32Z" fill="white"/>
<path d="M12 32C13.7674 32 15.2 30.5673 15.2 28.8C15.2 27.0327 13.7674 25.6 12 25.6C10.2327 25.6 8.80005 27.0327 8.80005 28.8C8.80005 30.5673 10.2327 32 12 32Z" fill="white"/>
<path d="M37.6 21.6H12.6168L13.1504 20.7344C13.3792 20.3632 13.4464 19.9144 13.3368 19.492L12.816 17.4872L36.0024 16.2824C36.8816 16.2376 37.6 15.48 37.6 14.6V4C37.6 3.12 36.88 2.4 36 2.4H8.8952L8.5824 1.1976C8.49329 0.854661 8.29286 0.551004 8.01255 0.334261C7.73225 0.117517 7.38793 -5.05459e-05 7.0336 1.63021e-08H1.6C1.17565 1.63021e-08 0.768687 0.168571 0.468629 0.468629C0.168571 0.768687 0 1.17565 0 1.6C0 2.02435 0.168571 2.43131 0.468629 2.73137C0.768687 3.03143 1.17565 3.2 1.6 3.2H5.7968L10.0688 19.636L8.3888 22.36C8.23937 22.6024 8.15739 22.8803 8.15134 23.1649C8.14529 23.4496 8.2154 23.7307 8.3544 23.9792C8.49284 24.228 8.69525 24.4353 8.94069 24.5796C9.18613 24.7239 9.46568 24.8 9.7504 24.8H37.6C38.0243 24.8 38.4313 24.6314 38.7314 24.3314C39.0314 24.0313 39.2 23.6243 39.2 23.2C39.2 22.7757 39.0314 22.3687 38.7314 22.0686C38.4313 21.7686 38.0243 21.6 37.6 21.6Z" fill="white"/>
</svg>
