<svg width="15" height="15" viewBox="0 0 15 15" fill="none" xmlns="http://www.w3.org/2000/svg">
<path d="M10 7.5C10 8.88071 8.65685 10.5 7 10.5C5.34315 10.5 4.5 8.88071 4.5 7.5C4.5 6.11929 5.34315 4.5 7 4.5C8.65685 4.5 10 6.11929 10 7.5Z" fill="#FBBD3D"/>
<path d="M7.48441 4.07678C9.38274 4.07678 10.9232 5.61718 10.9232 7.51557C10.9232 9.4139 9.38272 10.9699 7.48441 10.9699C5.57055 10.9699 4.03007 9.4139 4.03007 7.51557C4.03018 5.61723 5.58619 4.07678 7.48441 4.07678ZM4.87026 7.53113C4.87026 8.85379 5.92829 9.98962 7.25095 10.1141V4.93262C5.9284 5.057 4.87026 6.19296 4.87026 7.53115V7.53113Z" fill="white"/>
<path d="M7.90453 12.1058H7.06434V15H7.90453V12.1058Z" fill="white"/>
<path d="M7.90454 0H7.06435V2.89418H7.90454V0Z" fill="white"/>
<path d="M15 7.09546H12.1058V7.93565H15V7.09546Z" fill="white"/>
<path d="M2.89418 7.09546H1.01591e-06V7.93565H2.89418V7.09546Z" fill="white"/>
<path d="M11.0641 10.4553L10.4699 11.0495L12.5164 13.096L13.1106 12.5018L11.0641 10.4553Z" fill="white"/>
<path d="M3.92698 4.55417L4.52124 3.96013L2.47506 1.91342L1.8808 2.50746L3.92698 4.55417Z" fill="white"/>
<path d="M11.0402 4.54139L13.0867 2.4949L12.4925 1.90076L10.446 3.94724L11.0402 4.54139Z" fill="white"/>
<path d="M3.9292 10.4617L1.88271 12.5082L2.47686 13.1024L4.52335 11.0559L3.9292 10.4617Z" fill="white"/>
</svg>
