<svg width="15" height="15" viewBox="0 0 15 15" fill="none" xmlns="http://www.w3.org/2000/svg">
<path d="M7.84551 14.9863C8.70005 14.95 9.55462 14.7501 10.3728 14.4233C12.2273 13.6604 13.6636 12.2254 14.4273 10.3727C15.1909 8.51999 15.1909 6.48567 14.4273 4.63296C13.3 1.89026 10.7 0.182824 7.91823 0.0193493C7.84556 0.0193493 7.75463 0.00123125 7.68183 0.00123125H7.64543C6.64541 -0.0168869 5.60912 0.164677 4.62724 0.564278C2.77267 1.32716 1.33635 2.76217 0.572723 4.61481C-0.190908 6.46756 -0.190908 8.50187 0.572723 10.3546C1.33635 12.2073 2.77277 13.6422 4.62724 14.4051C5.55447 14.7866 6.51807 14.9864 7.49995 14.9864H7.62728H7.68182C7.73648 15.0045 7.79101 15.0045 7.84555 14.9863L7.84551 14.9863ZM4.22735 7.50282C4.22735 6.77633 4.31828 6.04968 4.46375 5.35955H7.15461V9.62805H4.50002C4.33641 8.91953 4.22734 8.19304 4.22734 7.50278L4.22735 7.50282ZM13.5909 5.35955C14.0819 6.7582 14.0819 8.24757 13.5909 9.62805H11.9546C12.1182 8.90156 12.191 8.17491 12.191 7.48478C12.191 6.77639 12.1184 6.0499 11.991 5.34151L13.5909 5.34126V5.35955ZM11.1363 7.50282C11.1363 8.19307 11.0454 8.9196 10.8637 9.64608H8.20906V5.37758H10.8999C11.0454 6.04974 11.1363 6.77636 11.1363 7.50285L11.1363 7.50282ZM8.20908 13.842V10.6997H10.5363C9.99085 12.2072 9.13631 13.4786 8.20908 13.842ZM8.20908 4.30598V1.14544C9.19082 1.47233 10.0818 2.70753 10.6091 4.30598H8.20908ZM7.15454 1.14544V4.30598H4.75449C5.28182 2.70753 6.17279 1.49056 7.15454 1.14544ZM7.15454 10.6996V13.8419C6.2273 13.4787 5.37276 12.2072 4.82728 10.6996H7.15454ZM10.4272 13.2426C10.6091 12.9702 10.7908 12.6796 10.9544 12.3708C11.2271 11.8441 11.4635 11.2809 11.6454 10.6997H13.0999C12.4818 11.7895 11.5544 12.6613 10.4272 13.2426V13.2426ZM13.0999 4.30601H11.7182C11.5182 3.63398 11.2636 2.99822 10.9545 2.43514C10.8455 2.21721 10.7181 2.03553 10.5909 1.83573C11.609 2.39878 12.4999 3.25251 13.0999 4.30601H13.0999ZM4.97273 1.58144C4.77273 1.83573 4.59085 2.12639 4.40913 2.45327C4.10006 3.01632 3.84553 3.65212 3.6455 4.32415H1.9C2.59093 3.08907 3.66362 2.12626 4.97273 1.58144ZM1.40912 5.35952H3.37275C3.24541 6.06791 3.17274 6.7763 3.17274 7.50278C3.17274 8.19304 3.26367 8.91956 3.40914 9.64605H1.40909C0.918282 8.24753 0.918282 6.75803 1.40909 5.35939L1.40912 5.35952ZM1.90006 10.6997H3.71823C3.9001 11.281 4.13638 11.8622 4.40917 12.3708C4.62731 12.7885 4.86371 13.17 5.11825 13.4969C5.08185 13.4788 5.06372 13.4788 5.02732 13.4605C3.68184 12.8976 2.60915 11.9349 1.90007 10.6997L1.90006 10.6997Z" fill="white"/>
</svg>
