<svg width="15" height="15" viewBox="0 0 15 15" fill="none" xmlns="http://www.w3.org/2000/svg">
<path d="M2.67452 11.6981C2.33189 10.3276 3.36844 9 4.7811 9H10.2189C11.6316 9 12.6681 10.3276 12.3255 11.6981V11.6981C12.126 12.496 11.4928 13.1127 10.6899 13.2911L8.04233 13.8795C7.68513 13.9589 7.31487 13.9589 6.95767 13.8795L4.31005 13.2911C3.50717 13.1127 2.87399 12.496 2.67452 11.6981V11.6981Z" fill="white"/>
<path d="M6.87281 12.5C6.70118 12.5002 6.53646 12.4563 6.41508 12.378L5.20975 11.5999C5.07503 11.5125 4.9996 11.3942 5 11.2709C5.00044 11.1476 5.07675 11.0295 5.21206 10.9425C5.3469 10.8553 5.52984 10.8061 5.72077 10.8058C5.9117 10.8056 6.09496 10.8542 6.23039 10.9411L6.8783 11.3593L8.77195 10.1369C8.90679 10.0493 9.09013 10.0001 9.28138 10H9.28326C9.47387 10.0003 9.65649 10.0495 9.79093 10.1367C9.92538 10.2239 10.0006 10.3421 10 10.4651C9.99948 10.5882 9.92317 10.706 9.78798 10.7928L7.33435 12.3766C7.21206 12.4557 7.04598 12.5002 6.87283 12.5L6.87281 12.5ZM6.54165 12.2963C6.63035 12.353 6.75025 12.3848 6.87513 12.3845C7.00002 12.3842 7.11963 12.352 7.20776 12.2949L9.66138 10.711C9.7635 10.6458 9.82115 10.5571 9.82155 10.4644C9.82195 10.3717 9.76506 10.2827 9.66354 10.2172C9.56198 10.1516 9.42415 10.1149 9.28056 10.1152C9.13698 10.1154 8.99947 10.1526 8.89847 10.2186L6.9415 11.4818C6.92472 11.4927 6.90195 11.4988 6.87822 11.4988C6.85449 11.4988 6.83171 11.4927 6.81494 11.4818L6.10375 11.0227H6.10379C5.96639 10.9351 5.76724 10.9012 5.58078 10.9337C5.39433 10.9662 5.24866 11.0602 5.19832 11.1806C5.14794 11.3009 5.20047 11.4295 5.33623 11.5182L6.54165 12.2963Z" fill="#41D889" stroke="#41D98A"/>
<path d="M15 7.5C15 11.6421 11.6421 15 7.5 15C3.35786 15 0 11.6421 0 7.5C0 3.35786 3.35786 0 7.5 0C11.6421 0 15 3.35786 15 7.5ZM1.5 7.5C1.5 10.8137 4.18629 13.5 7.5 13.5C10.8137 13.5 13.5 10.8137 13.5 7.5C13.5 4.18629 10.8137 1.5 7.5 1.5C4.18629 1.5 1.5 4.18629 1.5 7.5Z" fill="white"/>
<rect x="5" y="2" width="5" height="5" rx="2.5" fill="white"/>
</svg>
