<svg width="22" height="23" viewBox="0 0 22 23" fill="none" xmlns="http://www.w3.org/2000/svg">
<path d="M22 10.1629V20.7619C21.9992 21.0928 21.9094 21.4173 21.7401 21.7016C21.5707 21.9858 21.3281 22.2193 21.0375 22.3775C20.771 22.5244 20.4709 22.5995 20.1667 22.5952H14.6667C14.4236 22.5952 14.1904 22.4986 14.0185 22.3267C13.8466 22.1548 13.75 21.9217 13.75 21.6786V16.1786C13.75 15.9355 13.6534 15.7023 13.4815 15.5304C13.3096 15.3585 13.0765 15.2619 12.8333 15.2619H9.16668C8.92356 15.2619 8.69041 15.3585 8.5185 15.5304C8.34659 15.7023 8.25001 15.9355 8.25001 16.1786V21.6786C8.25001 21.9217 8.15344 22.1548 7.98153 22.3267C7.80962 22.4986 7.57646 22.5952 7.33335 22.5952H1.83335C1.57328 22.5962 1.31601 22.5415 1.07884 22.4348C0.841672 22.328 0.630102 22.1718 0.458356 21.9765C0.16032 21.6243 -0.00221264 21.1774 2.27547e-05 20.7161V10.1629C0.000103588 9.90857 0.0531191 9.657 0.155698 9.42422C0.258276 9.19145 0.408173 8.98257 0.595856 8.81087L9.76251 0.480667C10.1005 0.171475 10.5419 0 11 0C11.4581 0 11.8995 0.171475 12.2375 0.480667L21.4042 8.81087C21.5919 8.98257 21.7417 9.19145 21.8443 9.42422C21.9469 9.657 21.9999 9.90857 22 10.1629Z" fill="white"/>
</svg>
