<svg width="15" height="15" viewBox="0 0 15 15" fill="none" xmlns="http://www.w3.org/2000/svg">
<circle cx="7.5" cy="7.5" r="7.5" fill="white"/>
<path fill-rule="evenodd" clip-rule="evenodd" d="M10.8747 8.898C11.2188 8.898 11.5 9.17206 11.5 9.51018C11.5 9.84768 11.2196 10.1225 10.8735 10.1225H4.62649C4.28033 10.1225 4 9.84831 4 9.51018C4 9.17279 4.27989 8.898 4.62529 8.898C4.79706 8.898 4.93746 8.7608 4.93746 8.59157V6.75509C4.93746 5.23282 6.19666 4 7.75 4C9.30371 4 10.5625 5.23348 10.5625 6.75509V8.59157C10.5625 8.76187 10.7023 8.898 10.8747 8.898V8.898ZM6.65618 10.4286H8.84365C8.84365 11.0203 8.35394 11.5 7.74992 11.5C7.14589 11.5 6.65618 11.0203 6.65618 10.4286V10.4286Z" fill="#FD7564"/>
</svg>
