<svg width="15" height="5" viewBox="0 0 15 5" fill="none" xmlns="http://www.w3.org/2000/svg">
<path d="M3.76596 2.5C3.76596 3.88075 2.92298 5 1.88304 5C0.843093 5 0 3.88075 0 2.5C0 1.11925 0.843093 0 1.88304 0C2.92298 0 3.76596 1.11925 3.76596 2.5Z" fill="white"/>
<path d="M9.38285 2.5C9.38285 3.88075 8.53986 5 7.49992 5C6.45998 5 5.61699 3.88075 5.61699 2.5C5.61699 1.11925 6.45998 0 7.49992 0C8.53986 0 9.38285 1.11925 9.38285 2.5Z" fill="white"/>
<path d="M15 2.5C15 3.88075 14.1569 5 13.117 5C12.077 5 11.234 3.88075 11.234 2.5C11.234 1.11925 12.077 0 13.117 0C14.1569 0 15 1.11925 15 2.5Z" fill="white"/>
</svg>
