<svg width="38" height="32" viewBox="0 0 38 32" fill="none" xmlns="http://www.w3.org/2000/svg">
<path d="M33.28 17.5667C33.36 17.0667 33.4 16.55 33.4 16C33.4 15.4667 33.36 14.9333 33.26 14.4333L37.32 11.8C37.68 11.5667 37.78 11.1167 37.56 10.7833L33.72 5.25C33.48 4.88333 32.98 4.76667 32.54 4.88333L27.76 6.48333C26.76 5.85 25.7 5.31667 24.52 4.91667L23.8 0.683333C23.72 0.283333 23.32 0 22.84 0H15.16C14.68 0 14.3 0.283333 14.22 0.683333L13.5 4.91667C12.32 5.31667 11.24 5.86667 10.26 6.48333L5.47997 4.88333C5.03997 4.75 4.53998 4.88333 4.29998 5.25L0.479975 10.7833C0.239975 11.1333 0.319975 11.5667 0.719975 11.8L4.77997 14.4333C4.67998 14.9333 4.59998 15.4833 4.59998 16C4.59998 16.5167 4.63998 17.0667 4.73997 17.5667L0.679975 20.2C0.319975 20.4333 0.219975 20.8833 0.439975 21.2167L4.27997 26.75C4.51997 27.1167 5.01998 27.2333 5.45998 27.1167L10.24 25.5167C11.24 26.15 12.3 26.6833 13.48 27.0833L14.2 31.3167C14.3 31.7167 14.68 32 15.16 32H22.84C23.32 32 23.72 31.7167 23.78 31.3167L24.5 27.0833C25.68 26.6833 26.76 26.15 27.74 25.5167L32.52 27.1167C32.96 27.25 33.46 27.1167 33.7 26.75L37.54 21.2167C37.78 20.85 37.68 20.4333 37.3 20.2L33.28 17.5667ZM19 22C15.04 22 11.8 19.3 11.8 16C11.8 12.7 15.04 10 19 10C22.96 10 26.2 12.7 26.2 16C26.2 19.3 22.96 22 19 22Z" fill="white"/>
</svg>
