<svg width="20" height="20" viewBox="0 0 44 44" fill="none" xmlns="http://www.w3.org/2000/svg">
<path fill-rule="evenodd" clip-rule="evenodd" d="M14.0784 1.32798L17.9419 11.0284C18.7572 13.064 16.8758 14.0376 15.3976 14.9935C14.2721 15.7211 12.7822 16.6824 11.6319 17.6372C9.39553 19.4961 24.5032 34.607 26.3641 32.3683C27.3183 31.218 28.2796 29.7287 29.0078 28.6039C29.8914 27.2359 30.9481 25.2521 32.8914 26.0179L42.6733 29.9243C43.5693 30.2822 44.1309 31.2223 43.9737 32.213C42.4284 41.9058 36.8713 44.8739 30.0439 43.7878C18.0138 41.8711 2.12815 25.9877 0.212744 13.9576C-0.871002 7.15342 2.07118 1.61295 11.6848 0.0460125C12.6697 -0.164133 13.6915 0.359761 14.0784 1.32693L14.0784 1.32798Z" fill="#00A884"/>
</svg>
