<svg width="20" height="20" viewBox="0 0 34 34" fill="none" xmlns="http://www.w3.org/2000/svg">
<path fill-rule="evenodd" clip-rule="evenodd" d="M10.8788 1.02617L13.8642 8.52195C14.4942 10.0949 13.0404 10.8473 11.8982 11.5859C11.0284 12.1481 9.87717 12.8909 8.98831 13.6287C7.26018 15.0652 18.9343 26.7418 20.3722 25.0118C21.1096 24.123 21.8524 22.9722 22.4151 22.103C23.0979 21.0459 23.9144 19.513 25.4161 20.1048L32.9748 23.1233C33.6672 23.3999 34.1011 24.1263 33.9797 24.8919C32.7856 32.3817 28.4915 34.6753 23.2157 33.836C13.9197 32.355 1.64448 20.0814 0.164393 10.7854C-0.673047 5.52764 1.60046 1.24637 9.02917 0.0355551C9.79019 -0.12683 10.5798 0.277997 10.8787 1.02535L10.8788 1.02617Z" fill="#0A5349"/>
</svg>
