<svg width="15" height="15" viewBox="0 0 15 15" fill="none" xmlns="http://www.w3.org/2000/svg">
<path d="M10.3947 0.0446139C10.2703 -0.0117399 10.1284 -0.0148622 10.0017 0.0361329C9.87507 0.0870161 9.77486 0.187448 9.72408 0.314102C9.67342 0.440867 9.67665 0.582807 9.73323 0.70701C10.134 1.58801 10.34 2.54511 10.3371 3.51304C10.3351 5.32201 9.61539 7.05647 8.33618 8.33569C7.05697 9.61482 5.32249 10.3345 3.51325 10.3365C2.54526 10.3394 1.5881 10.1334 0.707052 9.73266C0.582845 9.67609 0.440897 9.67285 0.314121 9.72351C0.18746 9.77428 0.0870249 9.87449 0.0361358 10.0011C-0.0148646 10.1278 -0.0117394 10.2697 0.0446171 10.3941C0.741431 11.9384 1.92088 13.215 3.4057 14.0315C4.89037 14.8481 6.60023 15.1606 8.27777 14.9221C9.95539 14.6835 11.51 13.9067 12.7085 12.7086C13.9066 11.5105 14.6835 9.95581 14.9221 8.27817C15.1606 6.60064 14.8481 4.891 14.0315 3.40639C13.2149 1.92168 11.9382 0.742304 10.3936 0.0455026L10.3947 0.0446139Z" fill="white"/>
</svg>
