<svg width="15" height="18" viewBox="0 0 15 18" fill="none" xmlns="http://www.w3.org/2000/svg">
<path d="M14.7708 3.72917L7.68354 0.0447574H7.6834C7.57006 -0.0149191 7.43829 -0.0149191 7.32495 0.0447574L0.237717 3.72917H0.237577C0.0928238 3.80535 0.000418094 3.96649 0 4.14367C0 8.58832 1.25071 14.4833 7.08723 17.3387C7.18313 17.3848 7.26227 17.4216 7.31239 17.4539C7.43132 17.5154 7.56881 17.5154 7.6876 17.4539C7.73757 17.4216 7.81686 17.3848 7.91276 17.3387C13.7747 14.4833 15 8.58793 15 4.14367C15.0011 3.96865 14.9123 3.80797 14.7708 3.72917H14.7708ZM10.2975 6.90702L7.50423 10.4073C7.4121 10.5196 7.28284 10.586 7.14563 10.5916C7.01414 10.5917 6.88809 10.5336 6.79554 10.4303L5.19042 8.68023C5.04832 8.60436 4.94684 8.45863 4.91697 8.28731C4.88709 8.11599 4.93218 7.93927 5.03855 7.81036C5.14491 7.68145 5.30013 7.6156 5.45732 7.63272C5.6145 7.64983 5.75506 7.74791 5.83657 7.89733L7.08728 9.23752L9.54696 6.17024H9.5471C9.73121 5.94124 10.0485 5.92058 10.2558 6.12413C10.4631 6.32768 10.4816 6.67818 10.2975 6.90702V6.90702Z" fill="white"/>
</svg>
