<svg width="15" height="15" viewBox="0 0 15 15" fill="none" xmlns="http://www.w3.org/2000/svg">
<path d="M10.7652 3.08002V4.38858C11.8304 4.38858 12.8147 4.98184 13.3473 5.94509C13.88 6.90835 13.88 8.09502 13.3473 9.05811C12.8147 10.0213 11.8303 10.6148 10.7652 10.6148V11.9233V11.9232C12.2782 11.9232 13.6762 11.0804 14.4327 9.7124C15.1891 8.34437 15.1891 6.65888 14.4327 5.29081C13.6762 3.92279 12.2782 3.08002 10.7652 3.08002V3.08002Z" fill="white"/>
<path d="M9.18818 0.0726877C9.08619 0.0177703 8.97153 -0.00687263 8.85701 0.0016481C8.74249 0.0100146 8.63234 0.0512379 8.53866 0.120607L3.74094 3.6731H0.62665C0.460556 3.6731 0.30116 3.74201 0.18358 3.86478C0.0661493 3.98754 0 4.15381 0 4.32738V10.6735C0 10.8471 0.0661456 11.0134 0.18358 11.1361C0.301157 11.2589 0.460552 11.3278 0.62665 11.3278H3.74094L8.545 14.8803C8.67073 14.9729 8.82459 15.014 8.97744 14.9958C9.13028 14.9777 9.27146 14.9013 9.37389 14.7814C9.47631 14.6616 9.53299 14.5067 9.53299 14.346V0.654854C9.53269 0.534069 9.5002 0.415721 9.43945 0.312888C9.37855 0.210207 9.29171 0.126998 9.18826 0.0726877H9.18818Z" fill="white"/>
</svg>
