<svg width="92" height="97" viewBox="0 0 92 97" fill="none" xmlns="http://www.w3.org/2000/svg">
<path d="M91.8333 15.8208L39.5375 70.5417L20.1042 50.225L26.5667 43.4688L39.5375 57.0292L85.3708 9.11251L91.8333 15.8208ZM81.7042 39.9708C82.3 42.7021 82.6667 45.5771 82.6667 48.5C82.6667 69.6792 66.2583 86.8333 46 86.8333C25.7417 86.8333 9.33335 69.6792 9.33335 48.5C9.33335 27.3208 25.7417 10.1667 46 10.1667C53.2417 10.1667 59.9334 12.3708 65.6167 16.1563L72.2167 9.25626C64.7917 3.79376 55.7625 0.583344 46 0.583344C20.7 0.583344 0.166687 22.05 0.166687 48.5C0.166687 74.95 20.7 96.4167 46 96.4167C71.3 96.4167 91.8333 74.95 91.8333 48.5C91.8333 42.7979 90.825 37.3354 89.0833 32.2563L81.7042 39.9708Z" fill="#008000"/>
</svg>
