<svg width="39" height="27" viewBox="0 0 39 27" fill="none" xmlns="http://www.w3.org/2000/svg">
<path d="M38.25 10.25V3.75C38.25 1.94625 36.5625 0.5 34.5 0.5H4.5C2.4375 0.5 0.76875 1.94625 0.76875 3.75V10.25C2.83125 10.25 4.5 11.7125 4.5 13.5C4.5 15.2875 2.83125 16.75 0.75 16.75V23.25C0.75 25.0375 2.4375 26.5 4.5 26.5H34.5C36.5625 26.5 38.25 25.0375 38.25 23.25V16.75C36.1875 16.75 34.5 15.2875 34.5 13.5C34.5 11.7125 36.1875 10.25 38.25 10.25ZM21.375 22.4375H17.625V19.1875H21.375V22.4375ZM21.375 15.125H17.625V11.875H21.375V15.125ZM21.375 7.8125H17.625V4.5625H21.375V7.8125Z" fill="black"/>
</svg>
