<svg width="20" height="20" viewBox="0 0 52 35" fill="none" xmlns="http://www.w3.org/2000/svg">
<path d="M32.4801 35H2.18658C0.97831 35 0 33.8476 0 32.4245V2.57555C0 1.15234 0.978338 0 2.18658 0H32.4801C33.6884 0 34.6667 1.15237 34.6667 2.57555V32.4245C34.6667 33.8477 33.6883 35 32.4801 35Z" fill="#00A884"/>
<path d="M38.3508 26.9615L48.8351 33.1362C50.2887 33.9936 52 32.7481 52 30.8321V4.16495C52 2.25158 50.2887 1.00606 48.8356 1.86091L38.3514 8.03552C37.6107 8.47628 37.1426 9.36563 37.1426 10.3429V24.6608C37.1426 25.6355 37.6107 26.5249 38.3509 26.9624L38.3508 26.9615Z" fill="#00A884"/>
</svg>
