<svg width="15" height="13" viewBox="0 0 15 13" fill="none" xmlns="http://www.w3.org/2000/svg">
<path d="M14.0554 4.77008C12.3133 2.69833 9.98072 1.56677 7.50015 1.56677C5.01958 1.56677 2.68701 2.69836 0.9449 4.77008L0 3.65587C2.00789 1.28819 4.66545 0 7.5 0C10.3347 0 12.9921 1.30564 15 3.65587L14.0554 4.77008ZM13.0515 5.95399C11.5751 4.21303 9.5969 3.23818 7.50021 3.23818C5.40367 3.23804 3.44018 4.21303 1.94891 5.95399L2.89381 7.0682C5.43321 4.07377 9.56715 4.07377 12.1066 7.0682L13.0515 5.95399ZM11.0879 8.26949C10.1282 7.1379 8.85856 6.51118 7.50021 6.51118C6.14186 6.51118 4.87219 7.1379 3.91255 8.26949L4.85745 9.3837C5.5661 8.54807 6.51103 8.0954 7.51504 8.0954C8.51904 8.0954 9.46385 8.54807 10.1726 9.3837L11.0879 8.26949ZM9.07998 10.6372C8.20886 9.60996 6.79156 9.60996 5.92044 10.6372L7.50021 12.5L9.07998 10.6372Z" fill="white"/>
</svg>
